User Type,Username,Date,Text
,teegzjay,2007-03-19T04:53Z,"Here is the cue file for this torrent, copy and paste it into notepad and name it ""01-va-skitz_rocks_(mixed_by_nick_skitz).cue""

PERFORMER ""Various""

TITLE ""Skitz Rocks (Mixed by Nick Skitz)""

FILE ""01-va-skitz_rocks_(mixed_by_nick_skitz).mp3"" MP3

  TRACK 01 AUDIO

    TITLE ""skitz rockin megamix - skitz rockin megamix""

    PERFORMER ""Pink Floyd""

    INDEX 01 00:00:00

  TRACK 02 AUDIO

    TITLE ""boogie pimps - somebody to love""

    PERFORMER ""Pink Floyd""

    INDEX 01 06:03:00

  TRACK 03 AUDIO

    TITLE ""the warp brothers - smells like teen spirit""

    PERFORMER ""Pink Floyd""

    INDEX 01 09:14:00

  TRACK 04 AUDIO

    TITLE ""nick skitz - headbangerz rock da club""

    PERFORMER ""Pink Floyd""

    INDEX 01 13:52:00

  TRACK 05 AUDIO

    TITLE ""dj sputnik - all the things she said""

    PERFORMER ""Pink Floyd""

    INDEX 01 17:34:00

  TRACK 06 AUDIO

    TITLE ""groove coverage - poison""

    PERFORMER ""Pink Floyd""

    INDEX 01 21:34:00

  TRACK 07 AUDIO

    TITLE ""skam - the final countdown""

    PERFORMER ""Pink Floyd""

    INDEX 01 25:31:00

  TRACK 08 AUDIO

    TITLE ""club robbers - white stripers""

    PERFORMER ""Pink Floyd""

    INDEX 01 28:50:00

  TRACK 09 AUDIO

    TITLE ""scooter - ramp (the logical song)""

    PERFORMER ""Pink Floyd""

    INDEX 01 33:12:00

  TRACK 10 AUDIO

    TITLE ""nick skitz - guitar damage""

    PERFORMER ""Pink Floyd""

    INDEX 01 37:10:00

  TRACK 11 AUDIO

    TITLE ""starsplash - cold as ice""

    PERFORMER ""Pink Floyd""

    INDEX 01 40:53:00

  TRACK 12 AUDIO

    TITLE ""alex fakey - painted black""

    PERFORMER ""Pink Floyd""

    INDEX 01 45:25:00

  TRACK 13 AUDIO

    TITLE ""brooklyn bounce - sez, bass and rock n roll""

    PERFORMER ""Pink Floyd""

    INDEX 01 49:08:00

  TRACK 14 AUDIO

    TITLE ""black spider - save your life""

    PERFORMER ""Pink Floyd""

    INDEX 01 54:10:00

  TRACK 15 AUDIO

    TITLE ""the hose - rockmania""

    PERFORMER ""Pink Floyd""

    INDEX 01 56:36:00

  TRACK 16 AUDIO

    TITLE ""alex butcher - sweet dreams""

    PERFORMER ""Pink Floyd""

    INDEX 01 59:41:00

  TRACK 17 AUDIO

    TITLE ""index - glory of love""

    PERFORMER ""Pink Floyd""

    INDEX 01 61:54:00

  TRACK 18 AUDIO

    TITLE ""dj visage - rock that sound""

    PERFORMER ""Pink Floyd""

    INDEX 01 66:13:00

  TRACK 19 AUDIO

    TITLE ""clokx - clokx""

    PERFORMER ""Pink Floyd""

    INDEX 01 70:35:00

  TRACK 20 AUDIO

    TITLE ""nick skitz vs the choirboys - run to paradise""

    PERFORMER ""Pink Floyd""

    INDEX 01 75:37:00
"
